<svg xmlns="http://www.w3.org/2000/svg" width="58" height="55" viewBox="0 0 58 55">
  <g fill="#000000" fill-rule="evenodd">
    <g transform="translate(10.29)">
      <path d="M23.7643767,36.0632575 C23.8537,36.0808218 23.8777802,36.0810253 23.9624384,36.1156793 C24.1535023,36.1939391 24.3082744,36.3469322 24.3874442,36.5358678 C24.4137198,36.5985299 24.431557,36.6643115 24.4404756,36.7315851 C24.4450035,36.765154 24.4450035,36.7991299 24.4471988,36.8329023 L24.4471988,38.3854839 C24.4450035,38.4192563 24.4450035,38.4533 24.4404756,38.4868011 C24.4270977,38.5876437 24.3934814,38.6855701 24.3420279,38.7736632 C24.2905744,38.8616885 24.2216267,38.9394736 24.1399872,39.0013897 C24.0855151,39.0426897 24.0258291,39.0767333 23.9624384,39.1027069 C23.8355884,39.154654 23.6954977,39.1728966 23.559386,39.1551287 C23.4574395,39.1419046 23.3583058,39.1086069 23.269257,39.0578126 C23.2097767,39.0238368 23.1550988,38.9824011 23.1065953,38.9343874 C23.0095198,38.8384276 22.938857,38.7175115 22.9033198,38.586423 C22.8796512,38.4989402 22.8825326,38.4753402 22.876564,38.3854839 L22.876564,36.8329023 C22.8825326,36.7431138 22.8796512,36.7195138 22.9033198,36.6319632 C22.938857,36.5008747 23.0095198,36.3799586 23.1065953,36.2839989 C23.1793163,36.2121138 23.266307,36.1546057 23.361393,36.1156793 C23.4247837,36.0897736 23.4913302,36.0721414 23.559386,36.0632575 C23.5933453,36.0588494 23.6277163,36.0588494 23.6618814,36.0566115 C23.6960465,36.0588494 23.7302116,36.0610195 23.7643767,36.0632575 Z M17.8485291,34.1481989 C17.9378523,34.1657632 17.961864,34.1659667 18.0465221,34.2006885 C18.1733721,34.2525678 18.2854721,34.3376092 18.3690326,34.4453011 C18.4108128,34.4990793 18.4453209,34.5580793 18.4715279,34.6208092 C18.4978035,34.6834713 18.5156407,34.7492529 18.5246279,34.8165264 C18.5515895,35.0192287 18.4949907,35.2282379 18.3690326,35.390454 C18.3063965,35.4710874 18.2277756,35.5393103 18.1386581,35.5901724 C18.0496093,35.6410345 17.9505442,35.6742644 17.8485291,35.6874885 C17.8145698,35.6919644 17.7801988,35.6919644 17.7460337,35.6941345 L16.1753988,35.6941345 C16.0844977,35.6883023 16.0606233,35.6911506 15.9721233,35.6676862 C15.8395105,35.6325575 15.7171198,35.5627747 15.6200442,35.4668149 C15.5229686,35.3707874 15.4523744,35.2498713 15.4168372,35.1187828 C15.3902186,35.0205851 15.3833581,34.917369 15.3968047,34.8165264 C15.4057233,34.7492529 15.4235605,34.6834713 15.449836,34.6208092 C15.4761116,34.5580793 15.5105512,34.4990793 15.5523314,34.4453011 C15.6149674,34.3646 15.6935884,34.2964448 15.7827058,34.2455828 C15.8718233,34.1947207 15.9708884,34.1614908 16.0728349,34.1481989 C16.1067942,34.1437908 16.1412337,34.1437908 16.1753988,34.1415529 L17.7460337,34.1415529 C17.7801988,34.1437908 17.814364,34.1460287 17.8485291,34.1481989 Z M13.1366244,34.1481989 C13.1701721,34.1548448 13.2042686,34.1592529 13.237336,34.1680011 C13.3367442,34.1943138 13.4305267,34.2400897 13.5121663,34.3020057 C13.5938058,34.3639218 13.6627535,34.4416391 13.714207,34.5297322 C13.7485093,34.5884609 13.7749221,34.6513943 13.7926221,34.7169724 C13.8462023,34.9144529 13.8175942,35.1289552 13.714207,35.306023 C13.6799047,35.3647517 13.6379186,35.4188011 13.5894151,35.4668149 C13.4923395,35.5627747 13.3699488,35.6325575 13.237336,35.6676862 C13.148836,35.6911506 13.1249616,35.6883023 13.0340605,35.6941345 L11.4634256,35.6941345 C11.372593,35.6883023 11.3487186,35.6911506 11.2602186,35.6676862 C11.1276058,35.6325575 11.0052151,35.5627747 10.9081395,35.4668149 C10.859636,35.4188011 10.81765,35.3647517 10.7833477,35.306023 C10.7146744,35.1884977 10.6781081,35.0536115 10.6781081,34.9178437 C10.6781081,34.8161874 10.6985523,34.7147345 10.7379314,34.6208092 C10.7641384,34.5580793 10.7986465,34.4990793 10.8404267,34.4453011 C10.9030628,34.3646 10.9816837,34.2964448 11.0708012,34.2455828 C11.15985,34.1947207 11.2589837,34.1614908 11.3609302,34.1481989 C11.3948895,34.1437908 11.4292605,34.1437908 11.4634256,34.1415529 L13.0340605,34.1415529 C13.0682256,34.1437908 13.1024593,34.1460287 13.1366244,34.1481989 Z M3.71274651,34.1481989 C3.74636279,34.1548448 3.7804593,34.1592529 3.81352674,34.1680011 C3.91286628,34.1943138 4.00671744,34.2400897 4.08828837,34.3020057 C4.2523907,34.4264483 4.36188372,34.6138241 4.38884535,34.8165264 C4.39783256,34.8838 4.39783256,34.9519552 4.38884535,35.0191609 C4.37985814,35.0864345 4.36202093,35.1522839 4.33581395,35.214946 C4.29643488,35.3088713 4.23832674,35.3948621 4.16553721,35.4668149 C4.06846163,35.5627747 3.94613953,35.6325575 3.81352674,35.6676862 C3.72495814,35.6911506 3.70108372,35.6883023 3.61025116,35.6941345 L2.03961628,35.6941345 C2.00545116,35.6919644 1.97108023,35.6919644 1.93712093,35.6874885 C1.83510581,35.6742644 1.7360407,35.6410345 1.64692326,35.5901724 C1.58751163,35.5562644 1.53283372,35.5147609 1.48433023,35.4668149 C1.38718605,35.3707874 1.31659186,35.2498713 1.28105465,35.1187828 C1.25443605,35.0205851 1.24757558,34.917369 1.26102209,34.8165264 C1.2699407,34.7492529 1.28777791,34.6834713 1.31405349,34.6208092 C1.35343256,34.5268161 1.4115407,34.4408253 1.48433023,34.3689402 C1.58140581,34.2729805 1.70372791,34.2031299 1.8363407,34.1680011 C1.9248407,34.1446046 1.94878372,34.1474529 2.03961628,34.1415529 L3.61025116,34.1415529 C3.64441628,34.1437908 3.6785814,34.1460287 3.71274651,34.1481989 Z M8.42465116,34.1481989 C8.45826744,34.1548448 8.49236395,34.1592529 8.5254314,34.1680011 C8.62477093,34.1943138 8.71862209,34.2400897 8.80026163,34.3020057 C8.85466512,34.3433057 8.90344302,34.3914552 8.94522326,34.4453011 C9.07111279,34.6075172 9.12778023,34.8164586 9.10075,35.0191609 C9.0918314,35.0864345 9.07399419,35.1522839 9.0477186,35.214946 C9.00833953,35.3088713 8.9502314,35.3948621 8.87744186,35.4668149 C8.78036628,35.5627747 8.65804419,35.6325575 8.5254314,35.6676862 C8.4369314,35.6911506 8.41298837,35.6883023 8.32215581,35.6941345 L6.75152093,35.6941345 C6.66068837,35.6883023 6.63681395,35.6911506 6.54824535,35.6676862 C6.41563256,35.6325575 6.29331047,35.5627747 6.19623488,35.4668149 C6.14766279,35.4188011 6.10574535,35.3647517 6.07144302,35.306023 C6.01998953,35.2179299 5.98637326,35.1200034 5.97292674,35.0191609 C5.95502093,34.8846138 5.97347558,34.7462011 6.02595814,34.6208092 C6.05223372,34.5580793 6.08674186,34.4990793 6.12852209,34.4453011 C6.19108953,34.3646 6.26977907,34.2964448 6.35889651,34.2455828 C6.44794535,34.1947207 6.54701047,34.1614908 6.64902558,34.1481989 C6.68298488,34.1437908 6.71735581,34.1437908 6.75152093,34.1415529 L8.32215581,34.1415529 C8.35632093,34.1437908 8.39048605,34.1460287 8.42465116,34.1481989 Z M22.5604337,34.1481989 C22.59405,34.1548448 22.6281465,34.1592529 22.661214,34.1680011 C22.7605535,34.1943138 22.8544047,34.2400897 22.9359756,34.3020057 C23.1000779,34.4264483 23.2095709,34.6138241 23.2365326,34.8165264 C23.2455198,34.8838 23.2455198,34.9519552 23.2365326,35.0191609 C23.227614,35.0864345 23.2097081,35.1522839 23.1835012,35.214946 C23.1441221,35.3088713 23.086014,35.3948621 23.0132244,35.4668149 C22.9161488,35.5627747 22.7938267,35.6325575 22.661214,35.6676862 C22.5726453,35.6911506 22.5487709,35.6883023 22.4579384,35.6941345 L20.8873035,35.6941345 C20.7964709,35.6883023 20.7725279,35.6911506 20.6840279,35.6676862 C20.5514151,35.6325575 20.429093,35.5627747 20.3320174,35.4668149 C20.2834453,35.4188011 20.2415279,35.3647517 20.207157,35.306023 C20.1385523,35.1884977 20.101986,35.0536115 20.101986,34.9178437 C20.101986,34.8161874 20.1223616,34.7147345 20.1617407,34.6208092 C20.1880163,34.5580793 20.2224558,34.4990793 20.264236,34.4453011 C20.3268721,34.3646 20.4055616,34.2964448 20.4946105,34.2455828 C20.5837279,34.1947207 20.682793,34.1614908 20.7848081,34.1481989 C20.8187674,34.1437908 20.8531384,34.1437908 20.8873035,34.1415529 L22.4579384,34.1415529 C22.4921035,34.1437908 22.5262686,34.1460287 22.5604337,34.1481989 Z M0.887812791,30.7303356 C0.92142907,30.7369138 0.955525581,30.7413218 0.988593023,30.7501379 C1.05486512,30.7677023 1.11853023,30.7937437 1.17801047,30.8276517 C1.35713721,30.9299184 1.49036744,31.1015609 1.54387907,31.2990414 C1.56761628,31.3865241 1.56466628,31.4101241 1.57063488,31.4999805 L1.57063488,33.0525621 C1.56843953,33.0863345 1.56837093,33.1203103 1.56391163,33.1538793 C1.55053372,33.2547218 1.51684884,33.3526483 1.46546395,33.4406736 C1.41401047,33.5287667 1.34499419,33.6064839 1.26342326,33.6684 C1.20895116,33.7097 1.14926512,33.7438115 1.08587442,33.7697172 C0.990788372,33.8086437 0.888224419,33.8288529 0.785317442,33.8288529 C0.648039535,33.8288529 0.511584884,33.7927069 0.392693023,33.724823 C0.333212791,33.6909149 0.278534884,33.6494115 0.230031395,33.6014655 C0.132955814,33.5055057 0.0622930233,33.3845897 0.026755814,33.2534333 C0.0030872093,33.1659506 0.00596860465,33.1423506 0,33.0525621 L0,31.4999805 C0.00226395349,31.466208 0.00226395349,31.4321644 0.00672325581,31.3986632 C0.0157104651,31.3313897 0.0335476744,31.2655402 0.0598232558,31.2028782 C0.0991337209,31.1089529 0.157310465,31.0229621 0.230031395,30.9510092 C0.327106977,30.8550494 0.44942907,30.7852667 0.58204186,30.7501379 C0.670610465,30.7266736 0.694484884,30.7295218 0.785317442,30.7236897 C0.819482558,30.7258598 0.853647674,30.7280977 0.887812791,30.7303356 Z M0.887812791,26.072523 C0.92142907,26.079169 0.955525581,26.083577 0.988593023,26.0923253 C1.05486512,26.1098897 1.11853023,26.1359989 1.17801047,26.1699069 C1.35713721,26.2721057 1.49036744,26.4438161 1.54387907,26.6412966 C1.56761628,26.7287793 1.56466628,26.7523793 1.57063488,26.8421678 L1.57063488,28.3947494 C1.56843953,28.4285897 1.56837093,28.4625655 1.56391163,28.4961345 C1.55053372,28.5969092 1.51684884,28.6948356 1.46546395,28.7829287 C1.41401047,28.8710218 1.34499419,28.9487391 1.26342326,29.0106552 C1.15447907,29.0932552 1.02399302,29.1466943 0.887812791,29.1644621 C0.819825581,29.1732782 0.750877907,29.1732782 0.682822093,29.1644621 C0.614766279,29.1555782 0.548219767,29.137946 0.48482907,29.1119724 C0.389743023,29.073046 0.302752326,29.0156057 0.230031395,28.9437207 C0.132955814,28.8477609 0.0622930233,28.726777 0.026755814,28.5956885 C0.0030872093,28.5082057 0.00596860465,28.4846057 0,28.3947494 L0,26.8421678 C0.00226395349,26.8083954 0.00226395349,26.7744195 0.00672325581,26.7408506 C0.0157104651,26.673577 0.0335476744,26.6077954 0.0598232558,26.5451333 C0.0991337209,26.4511402 0.157310465,26.3651494 0.230031395,26.2932644 C0.327106977,26.1973046 0.44942907,26.127454 0.58204186,26.0923253 C0.670610465,26.0689287 0.694484884,26.071777 0.785317442,26.065877 C0.819482558,26.0681149 0.853647674,26.0703529 0.887812791,26.072523 Z M31.6779233,24.0068448 C31.7687558,24.0127448 31.7926988,24.0098966 31.8811988,24.0333609 C32.0138116,24.0684897 32.1361337,24.1383402 32.2332093,24.2343678 C32.3059302,24.3062529 32.3640384,24.3923115 32.4033488,24.4862368 C32.4296244,24.5488989 32.447393,24.6147483 32.4563802,24.6820218 C32.4652988,24.7492954 32.4652988,24.8173828 32.4563116,24.8846563 C32.4383372,25.0192034 32.3842767,25.1481897 32.3006477,25.2558816 C32.2380116,25.3365149 32.1593221,25.4047379 32.0702047,25.4555322 C31.9810872,25.5063264 31.8820221,25.5395563 31.780007,25.5528483 C31.7461163,25.5572563 31.7116767,25.5572563 31.6775116,25.5594264 L30.1068767,25.5590195 C30.0727116,25.5567816 30.0383407,25.5567816 30.0043814,25.5523736 C29.9023663,25.5390816 29.8033012,25.5057839 29.7142523,25.4549218 C29.6548407,25.4210138 29.6001628,25.3795103 29.5516593,25.3314966 C29.5031558,25.2835506 29.4611698,25.2294333 29.4268674,25.1707046 C29.3754826,25.0826115 29.3418663,24.9846851 29.3284884,24.8838425 C29.3105826,24.7492954 29.3290372,24.6108149 29.381657,24.4854908 C29.421036,24.3914977 29.4791442,24.3055747 29.5519337,24.2336897 C29.6490093,24.1377299 29.7714,24.0679471 29.9040128,24.0328184 C29.9925814,24.0094218 30.0164558,24.0122701 30.1072884,24.0064379 C30.6308105,24.0065736 31.1544012,24.0067092 31.6779233,24.0068448 Z M26.9660186,24.0056241 C27.0001837,24.0078621 27.0345547,24.0078621 27.068514,24.0122701 C27.1705291,24.0255621 27.2695942,24.0588598 27.358643,24.1097218 C27.4476919,24.1605839 27.5263814,24.2288069 27.5889488,24.309508 C27.6515849,24.3902092 27.6978244,24.4829816 27.724443,24.5811793 C27.7599116,24.7123356 27.7599116,24.851969 27.7243058,24.9830575 C27.7065372,25.0485678 27.6801244,25.1115011 27.6458221,25.1702299 C27.6114512,25.2289586 27.5695337,25.283008 27.5209616,25.330954 C27.423886,25.4269138 27.3014953,25.4966966 27.1688826,25.5318253 C27.080314,25.5552218 27.0564395,25.5523736 26.965607,25.5582057 L25.3949721,25.5577989 C25.360807,25.5555609 25.326436,25.5555609 25.2924767,25.5511529 C25.1904616,25.5378609 25.0913965,25.5045632 25.0023477,25.4537011 C24.9132302,25.4028391 24.8346093,25.3346161 24.7719733,25.2539149 C24.7302616,25.200069 24.6958221,25.141069 24.6695465,25.0784069 C24.630236,24.9844138 24.6097919,24.8830287 24.6098605,24.7813046 C24.6098605,24.6456046 24.6464953,24.5107184 24.7151686,24.3931931 C24.7494709,24.3344644 24.791457,24.2804149 24.8400291,24.232469 C24.9371047,24.1365092 25.0594953,24.0667264 25.1921081,24.0315977 C25.2806081,24.0082011 25.3044826,24.0111172 25.3953837,24.0052172 C25.9189058,24.0053529 26.4424965,24.0054885 26.9660186,24.0056241 Z M22.254114,24.0044034 C22.2882791,24.0066414 22.32265,24.0066414 22.3566093,24.0110494 C22.4585558,24.0244092 22.5576209,24.0576391 22.6467384,24.1085011 C22.7357872,24.1593632 22.8144081,24.2275862 22.8770442,24.3082874 C22.9606047,24.4159793 23.0145965,24.5450333 23.0325023,24.6795805 C23.0414209,24.746854 23.0414209,24.8150092 23.0324337,24.8822149 C23.0235151,24.9494885 23.0056093,25.0152701 22.9793337,25.078 C22.9399547,25.1719253 22.8817779,25.2579161 22.809057,25.3298011 C22.7119128,25.4256931 22.5895907,25.4954759 22.4569093,25.5306046 C22.3684093,25.5540011 22.3445349,25.5511529 22.2537023,25.5569851 L20.6830674,25.5565782 C20.6489023,25.5543402 20.6144628,25.5543402 20.5805035,25.5499322 C20.478557,25.5366402 20.3794919,25.5033425 20.2903744,25.4524805 C20.2013256,25.4016184 20.1227047,25.3333954 20.0600686,25.2526943 C20.0182884,25.1989161 19.9838488,25.1398483 19.9576419,25.0771862 C19.9050907,24.9517943 19.8867047,24.8133138 19.9046791,24.6787667 C19.9181256,24.5779241 19.9518105,24.4800655 20.003264,24.3919724 C20.0375663,24.3332437 20.0795523,24.2791943 20.1280558,24.2312483 C20.2252,24.1352885 20.3475221,24.0655057 20.4802035,24.030377 C20.5687035,24.0069805 20.5925779,24.0098966 20.6834791,24.0039966 C21.2070012,24.0041322 21.7305233,24.0042678 22.254114,24.0044034 Z M17.5421407,24.0031828 C17.5763058,24.0054207 17.6107453,24.0054207 17.6447047,24.0098966 C17.7466512,24.0231885 17.8457163,24.0564184 17.9348337,24.1072805 C17.9942453,24.1412563 18.0489233,24.1827598 18.0974267,24.2307057 C18.1945023,24.3267333 18.2650965,24.4476494 18.3005651,24.5787379 C18.3271837,24.6770034 18.3339756,24.7802195 18.3205291,24.8809943 C18.3115419,24.9482678 18.2937047,25.0140494 18.2674291,25.0767793 C18.22805,25.1707046 18.1698733,25.2566954 18.0971523,25.3285805 C18.0000081,25.4244724 17.8776174,25.494323 17.7450047,25.5293839 C17.6565047,25.5527805 17.6326302,25.5499322 17.5417291,25.5557644 L15.9710942,25.5553575 C15.9369291,25.5531874 15.9025581,25.5531195 15.8685988,25.5487115 C15.7666523,25.5354195 15.6675872,25.5021218 15.5784698,25.4512598 C15.4894209,25.4003977 15.4107314,25.3321747 15.348164,25.2514736 C15.3063837,25.1976954 15.2719442,25.1386276 15.2456686,25.0759655 C15.2063581,24.9820402 15.1859826,24.8805874 15.1859826,24.7788632 C15.1860512,24.6431632 15.2226174,24.508277 15.2912907,24.3907517 C15.3256616,24.332023 15.3676477,24.2779736 15.4161512,24.2300276 C15.5132953,24.1340678 15.6356174,24.0642851 15.7682302,24.0292241 C15.8567988,24.0057598 15.8806733,24.0086759 15.9715058,24.0027759 C16.4950965,24.0029115 17.0186186,24.0030471 17.5421407,24.0031828 Z M12.830236,24.0019621 C12.8644012,24.0042 12.8987721,24.0042 12.9327314,24.0086759 C13.0347465,24.0219678 13.1338116,24.0551977 13.2228605,24.1060598 C13.2822721,24.1400356 13.33695,24.1815391 13.3855221,24.2294851 C13.4340256,24.2774989 13.475943,24.3315483 13.5102453,24.390277 C13.57885,24.5078701 13.6154163,24.6427563 13.6153477,24.7784563 C13.6153477,24.8801805 13.5949035,24.9815655 13.5555244,25.0755586 C13.5160767,25.1694839 13.4579686,25.2554747 13.3851791,25.3273598 C13.2881035,25.4233195 13.1657128,25.4931023 13.0331,25.5281632 C12.9446,25.5516276 12.9207256,25.5487115 12.8298244,25.5545437 L11.2591895,25.5541368 C11.2250244,25.5519667 11.1906535,25.5518989 11.1566942,25.5474908 C11.0546791,25.5341989 10.955614,25.5009011 10.8665651,25.4500391 C10.7775163,25.399177 10.6988267,25.330954 10.6362593,25.2503207 C10.5526988,25.1425609 10.4986384,25.0135747 10.4808012,24.8790276 C10.471814,24.811754 10.4718826,24.7435989 10.4808012,24.6763253 C10.4897884,24.6091195 10.5076256,24.5432701 10.5339698,24.480608 C10.5733488,24.3866828 10.631457,24.300692 10.7042465,24.2288069 C10.8013221,24.1328471 10.9237128,24.0630644 11.0563256,24.0280034 C11.1448942,24.0045391 11.1687686,24.0074552 11.2596012,24.0015552 C11.7831233,24.0016908 12.306714,24.0018264 12.830236,24.0019621 Z M8.1183314,24.0007414 C8.20916395,24.0067092 8.23303837,24.0037931 8.32153837,24.0272575 C8.45415116,24.062454 8.57654186,24.1323046 8.67354884,24.2282644 C8.74626977,24.3002172 8.80437791,24.386208 8.84375698,24.4802011 C8.86996395,24.5428632 8.88780116,24.6086448 8.89671977,24.6759184 C8.91016628,24.7767609 8.90330581,24.879977 8.8766186,24.9781747 C8.8410814,25.1092632 8.7704186,25.2301793 8.67327442,25.3261391 C8.62477093,25.3740851 8.57002442,25.4155207 8.51061279,25.4494287 C8.42149535,25.5002908 8.32243023,25.5335207 8.22041512,25.5467448 C8.18645581,25.5511529 8.15208488,25.5511529 8.11791977,25.553323 L6.54728488,25.5529839 C6.51311977,25.550746 6.47874884,25.5506782 6.44478953,25.5462701 C6.34277442,25.5329782 6.2437093,25.4997483 6.15466047,25.4488184 C6.06554302,25.3979563 5.98692209,25.3298011 5.92428605,25.2491 C5.88257442,25.195254 5.84813488,25.136254 5.8218593,25.0735241 C5.79558372,25.0108621 5.77781512,24.9450126 5.76882791,24.8778069 C5.75545,24.7769644 5.76231047,24.6737483 5.78899767,24.5755506 C5.82453488,24.4444621 5.89519767,24.323546 5.99234186,24.2275862 C6.08941744,24.1316264 6.21180814,24.0618437 6.34442093,24.0267828 C6.43292093,24.0033184 6.45679535,24.0062345 6.54769651,24.0003345 C7.0712186,24.0004701 7.5948093,24.0006057 8.1183314,24.0007414 Z M3.40642674,23.9995207 C3.44059186,24.0017586 3.47496279,24.0018264 3.50892209,24.0062345 C3.6108686,24.0195264 3.70993372,24.0527563 3.79905116,24.1036862 C3.8881,24.1545483 3.96672093,24.2227034 4.02935698,24.3034046 C4.07113721,24.3572506 4.10557674,24.4162506 4.13178372,24.4789805 C4.17116279,24.5729057 4.19153837,24.6743586 4.19153837,24.7760828 C4.19146977,24.9117828 4.15490349,25.046669 4.08623023,25.1641943 C4.0518593,25.222923 4.00987326,25.2769724 3.96136977,25.3249184 C3.86422558,25.4208782 3.74190349,25.4906609 3.60922209,25.5257218 C3.52072209,25.5491862 3.49684767,25.5462701 3.40601512,25.5521701 L1.83538023,25.5517632 C1.80121512,25.5495253 1.76677558,25.5495253 1.73281628,25.5450494 C1.63086977,25.5317575 1.53180465,25.4985276 1.44268721,25.4475977 C1.32386395,25.3797138 1.22397558,25.2809736 1.15537093,25.1633805 C1.10391744,25.0753552 1.07030116,24.9773609 1.05692326,24.8765862 C1.04800465,24.8093126 1.04800465,24.7411575 1.05699186,24.6738839 C1.06597907,24.6066782 1.08381628,24.5408287 1.11009186,24.4781667 C1.14947093,24.3842414 1.20764767,24.2982506 1.2803686,24.2263655 C1.37751279,24.1304057 1.49983488,24.060623 1.63251628,24.0255621 C1.72101628,24.0020977 1.7448907,24.0050138 1.83579186,23.9991816 C2.35931395,23.9993172 2.88283605,23.9993851 3.40642674,23.9995207 Z M33.1173174,20.6777529 C33.2065721,20.6953172 33.2306523,20.6955207 33.3153105,20.7302425 C33.506443,20.8084345 33.6612151,20.9614276 33.7403163,21.1503632 C33.7665919,21.2130253 33.7844291,21.2788069 33.7934163,21.3460805 C33.7978756,21.3796494 33.7978756,21.4136253 33.8001395,21.4473977 L33.8001395,22.9999793 C33.7941709,23.0898356 33.7970523,23.1134356 33.7733837,23.2009184 C33.7378465,23.3320069 33.6671837,23.4529908 33.5701081,23.5489506 C33.5216047,23.5968966 33.4669267,23.6384 33.4074465,23.672308 C33.2885547,23.740192 33.1521,23.7762701 33.0148221,23.7762701 C32.9119151,23.7762701 32.8092826,23.7561287 32.7142651,23.7172023 C32.6508744,23.6912287 32.5911884,23.6571851 32.5367163,23.6158851 C32.4551453,23.553969 32.3861291,23.4762517 32.3346756,23.3881586 C32.2832221,23.3000655 32.2496058,23.2021391 32.2362279,23.1013644 C32.2317,23.0677954 32.2317,23.0337517 32.2295047,22.9999793 L32.2295047,21.4473977 C32.2317,21.4136253 32.2317,21.3796494 32.2362279,21.3460805 C32.2451465,21.2788069 32.2629837,21.2130253 32.2892593,21.1503632 C32.3418105,21.0249713 32.4277721,20.9141598 32.5367163,20.8315598 C32.6183558,20.7696437 32.712207,20.7238678 32.8115465,20.6975552 C32.9000465,20.6741586 32.9239209,20.6770069 33.0148221,20.6711069 C33.0489872,20.6733448 33.0831523,20.6755828 33.1173174,20.6777529 Z M33.1173174,16.020008 C33.2065721,16.0375724 33.2306523,16.0377759 33.3153105,16.0724299 C33.506443,16.1506897 33.6612151,16.3036828 33.7403163,16.4925506 C33.7665919,16.5552805 33.7844291,16.6210621 33.7934163,16.6883356 C33.7978756,16.7219046 33.7978756,16.7558805 33.8001395,16.7896529 L33.8001395,18.3422345 C33.7941709,18.432023 33.7970523,18.4556908 33.7733837,18.5431736 C33.7378465,18.6742621 33.6671837,18.7951782 33.5701081,18.8911379 C33.4973872,18.9630908 33.4103965,19.020531 33.3153105,19.0594575 C33.1884605,19.1114046 33.0484384,19.1295793 32.9123267,19.1118793 C32.8103116,19.0986552 32.7112465,19.0653575 32.6221291,19.0145632 C32.5627174,18.9805874 32.5080395,18.9391517 32.4594674,18.8911379 C32.410964,18.843192 32.3689779,18.7891425 32.3346756,18.7304138 C32.2832221,18.6423207 32.2496058,18.5443943 32.2362279,18.4435517 C32.2317,18.4099828 32.2317,18.3760069 32.2295047,18.3422345 L32.2295047,16.7896529 C32.2317,16.7558805 32.2317,16.7219046 32.2362279,16.6883356 C32.2451465,16.6210621 32.2629837,16.5552805 32.2892593,16.4925506 C32.3418105,16.3671586 32.4277721,16.2564149 32.5367163,16.1738149 C32.6183558,16.1118989 32.712207,16.066123 32.8115465,16.0398103 C32.9000465,16.016346 32.9239209,16.0192621 33.0148221,16.0133621 C33.0489872,16.0156 33.0831523,16.0177701 33.1173174,16.020008 Z M31.6266756,14.2767276 C31.7175081,14.2831701 31.7413826,14.2804575 31.8297453,14.3043966 C31.9621523,14.3403391 32.0840628,14.4109356 32.1805209,14.5074379 C32.2528302,14.5797977 32.3104581,14.6661276 32.3492198,14.7603241 C32.4010163,14.8860552 32.4185791,15.0246034 32.39985,15.1590149 C32.3904512,15.2262207 32.3722023,15.2919345 32.3455837,15.3544609 C32.3188965,15.4169874 32.2840453,15.4757839 32.2419907,15.5293586 C32.1788744,15.6096529 32.0997733,15.6773333 32.0103814,15.7276529 C31.9209895,15.7779724 31.82165,15.810592 31.7196349,15.8232736 C31.685607,15.8274782 31.651236,15.8272747 31.6170709,15.8293092 L30.046436,15.8198149 C29.9556035,15.8133724 29.9317291,15.8160851 29.8433663,15.792146 C29.7109593,15.7562034 29.5890488,15.6856747 29.4925907,15.5891046 C29.4202814,15.5167448 29.3626535,15.4304149 29.3238919,15.3362184 C29.2980279,15.2733529 29.2806023,15.2075034 29.2720267,15.1401621 C29.2592663,15.0392517 29.2667442,14.9361034 29.2939802,14.8380414 C29.3302721,14.7071563 29.4016895,14.5866471 29.4993826,14.4912977 C29.5481605,14.443623 29.6031128,14.4024586 29.6627302,14.3688897 C29.7521907,14.3185701 29.8514616,14.2859506 29.9534767,14.273269 C29.9875047,14.2690644 30.0218756,14.2692678 30.0560407,14.2672333 C30.5795628,14.2704207 31.1031535,14.273608 31.6266756,14.2767276 Z M26.9148395,14.2483126 C27.0056721,14.2546874 27.0295465,14.2519747 27.1179093,14.2759816 C27.2503163,14.3118563 27.3722267,14.3824529 27.4686849,14.479023 C27.5652116,14.5755253 27.6351198,14.6969161 27.6698337,14.828208 C27.6958349,14.9266092 27.7020093,15.0298253 27.688014,15.1306 C27.6786151,15.1978057 27.6603663,15.2635195 27.6337477,15.3259782 C27.6070605,15.3885046 27.5722093,15.4473011 27.5301547,15.5008759 C27.4670384,15.5811701 27.3879372,15.6489184 27.2985453,15.6992379 C27.2091535,15.7494897 27.109814,15.782177 27.0077988,15.7947908 C26.9737709,15.7990632 26.9394,15.7988598 26.9052349,15.8008264 L25.3346,15.7913322 C25.3004349,15.7889586 25.266064,15.7886874 25.2321733,15.7840759 C25.1302267,15.7701736 25.0313674,15.7363333 24.942593,15.6849966 C24.8833872,15.6506816 24.8289837,15.6089069 24.7807547,15.5606218 C24.7325256,15.5123368 24.6908826,15.4580839 24.6569233,15.3990839 C24.6060186,15.3107195 24.5730198,15.2125897 24.5601907,15.1116793 C24.5431081,14.9769966 24.562386,14.8387195 24.6156919,14.7135989 C24.6556884,14.619877 24.7143453,14.5342931 24.7875465,14.4628149 C24.8851709,14.3673977 25.0079733,14.2983609 25.1407919,14.264046 C25.2294291,14.2411241 25.2533035,14.244108 25.3442047,14.2388184 C25.8677267,14.2419379 26.3913174,14.2451253 26.9148395,14.2483126 Z M22.2030035,14.2198299 C22.293836,14.2262724 22.3177105,14.223492 22.4060733,14.2474989 C22.5384802,14.2834414 22.6603907,14.3539701 22.7568488,14.4505402 C22.8051465,14.4988253 22.8467209,14.5530782 22.8806802,14.6120782 C22.9485988,14.7300103 22.9843419,14.8651 22.9835186,15.0008678 C22.9829012,15.1025241 22.9618395,15.2038414 22.9219116,15.2975632 C22.8952244,15.3600897 22.8604419,15.4188862 22.8183186,15.4724609 C22.7552023,15.5527552 22.6761012,15.6204356 22.5867093,15.6707552 C22.4973174,15.7210747 22.3980465,15.7536943 22.2959628,15.7663759 C22.2619349,15.7705805 22.227564,15.770377 22.1933988,15.7724115 L20.622764,15.7629172 C20.532,15.7564747 20.508057,15.7591874 20.4196942,15.7351805 C20.2872872,15.6993057 20.1653767,15.6287092 20.0689186,15.5321391 C19.9966093,15.4598471 19.9389814,15.3735172 19.9002198,15.2793207 C19.8484233,15.1535897 19.8308605,15.0150414 19.8495895,14.8805621 C19.8636535,14.7798552 19.8978872,14.6821322 19.9498895,14.5943782 C19.9845349,14.5358529 20.026864,14.4820069 20.0757105,14.4343322 C20.1244884,14.3866575 20.1794407,14.3454931 20.2390581,14.311992 C20.3285186,14.2616724 20.4277895,14.2289851 20.5298047,14.2163713 C20.5638326,14.2121667 20.5982035,14.2123701 20.6323686,14.2103356 C21.1558907,14.213523 21.6794814,14.2166425 22.2030035,14.2198299 Z M17.4911674,14.1913471 C17.582,14.1977897 17.6058744,14.195077 17.6942372,14.2190161 C17.8266442,14.2549586 17.9485547,14.3255552 18.0450814,14.4220575 C18.1173221,14.4944172 18.17495,14.5807471 18.2137116,14.6749437 C18.2525419,14.7691402 18.2723,14.8706609 18.2716826,14.9723851 C18.2708593,15.1080851 18.2334012,15.2427678 18.1640419,15.3598862 C18.1293965,15.4184115 18.0870674,15.4722575 18.0382895,15.5199322 C17.989443,15.5676069 17.9344907,15.6087034 17.8748733,15.6422724 C17.7854814,15.692592 17.6862105,15.7252115 17.5841267,15.7378931 C17.5500988,15.7420977 17.5157279,15.7418943 17.4815628,15.7439287 L15.9109279,15.7344345 C15.8767628,15.7319931 15.8423919,15.7317897 15.8085012,15.7271782 C15.7065547,15.7132759 15.6076953,15.6794356 15.5189209,15.628031 C15.4301465,15.5766943 15.3519372,15.5079966 15.2897814,15.4269563 C15.206907,15.3187897 15.1536012,15.1894644 15.1365186,15.0547816 C15.1237581,14.9538713 15.131236,14.850723 15.1584721,14.7526609 C15.1765837,14.6872184 15.2034081,14.6244207 15.2380535,14.5658954 C15.2726988,14.5073701 15.3150279,14.453592 15.3638744,14.4059172 C15.4614988,14.3105 15.5843012,14.2413954 15.7171198,14.2070805 C15.805757,14.1841586 15.8296314,14.1872103 15.9205326,14.1818529 C16.4440547,14.1850402 16.9676453,14.1882276 17.4911674,14.1913471 Z M12.7793314,14.1628644 C12.870164,14.1693069 12.8940384,14.1665943 12.9824012,14.1906011 C13.1148081,14.2264759 13.2367186,14.2970724 13.3332453,14.3936425 C13.405486,14.4659345 13.463114,14.5523322 13.5018756,14.6464609 C13.5277395,14.7093264 13.5451651,14.7752437 13.5537407,14.8425851 C13.5665698,14.9434276 13.5590919,15.0466437 13.5318558,15.1447057 C13.4954953,15.275523 13.4240779,15.3960322 13.3264535,15.4914494 C13.277607,15.5391241 13.2226547,15.5802885 13.1630372,15.6138575 C13.0736453,15.6641092 12.9743744,15.6967966 12.8722907,15.7094103 C12.8382628,15.7136149 12.8038919,15.7134793 12.7697267,15.715446 L11.1990919,15.7059517 C11.1649267,15.7035782 11.1305558,15.7033069 11.0966651,15.6986954 C10.9947186,15.6847931 10.8958593,15.6509529 10.8070849,15.5996161 C10.7183105,15.5482115 10.6401012,15.4795816 10.5779453,15.3984736 C10.4950709,15.2903069 10.4417651,15.1609816 10.4246826,15.0262989 C10.4161756,14.9590253 10.4165872,14.8908701 10.4259174,14.8236644 C10.4353163,14.7564586 10.4535651,14.6907448 10.4802523,14.6282184 C10.5201802,14.5344966 10.5788372,14.4489126 10.6520384,14.3774345 C10.7496628,14.2820172 10.8724651,14.2129805 11.0052837,14.1786655 C11.0939209,14.1557437 11.1177953,14.1587276 11.2086965,14.1534379 C11.7322186,14.1565575 12.2558093,14.1597448 12.7793314,14.1628644 Z M8.06749535,14.1344494 C8.10166047,14.1368908 8.1360314,14.1370943 8.16992209,14.1417057 C8.2718686,14.155608 8.37072791,14.1894483 8.45950233,14.2407851 C8.51870814,14.2751 8.57318023,14.3168747 8.6214093,14.3651598 C8.71786744,14.4617299 8.78777558,14.5830529 8.82248953,14.7144126 C8.8484907,14.812746 8.85473372,14.9160299 8.84066977,15.0167368 C8.83127093,15.0839425 8.81302209,15.1496563 8.78640349,15.2121828 C8.74640698,15.3059046 8.68775,15.3914885 8.61461744,15.4629667 C8.51692442,15.5583839 8.39412209,15.6274207 8.26130349,15.6618034 C8.17266628,15.6846575 8.14879186,15.6816736 8.0578907,15.6869632 L6.48725581,15.6775368 C6.4531593,15.6750954 6.41871977,15.674892 6.38482907,15.6702805 C6.28288256,15.6563782 6.18402326,15.6225379 6.09524884,15.5711333 C6.00647442,15.5197287 5.92826512,15.4510989 5.8661093,15.3700586 C5.82467209,15.3159414 5.79057558,15.2567379 5.76471163,15.1939402 C5.71291512,15.0682092 5.69535233,14.9296609 5.71415,14.7951816 C5.72814535,14.6944747 5.76237907,14.5967517 5.8143814,14.5089977 C5.84902674,14.4504046 5.89135581,14.3966264 5.94020233,14.3489517 C6.03782674,14.2536023 6.16062907,14.1844977 6.29344767,14.1501828 C6.38215349,14.1272609 6.4059593,14.1303126 6.49686047,14.1249552 C7.02038256,14.1281425 7.54397326,14.1312621 8.06749535,14.1344494 Z M3.3556593,14.1059667 C3.38982442,14.108408 3.42419535,14.1086115 3.45808605,14.113223 C3.56003256,14.1271253 3.65889186,14.1609655 3.74766628,14.2123701 C3.8364407,14.2637069 3.91465,14.3324046 3.97680581,14.4134448 C4.01824302,14.4674943 4.05233953,14.5267655 4.07820349,14.5895632 C4.13,14.7152943 4.14756279,14.8538425 4.12883372,14.988254 C4.11476977,15.0890287 4.08053605,15.1867517 4.02853372,15.2745057 C3.99388837,15.333031 3.9515593,15.386877 3.9027814,15.4345517 C3.80508837,15.5299011 3.68228605,15.5990057 3.54946744,15.6333207 C3.46083023,15.6562425 3.43695581,15.6531908 3.34605465,15.6585483 L1.77541977,15.649054 C1.68465581,15.6426115 1.66071279,15.6453241 1.57235,15.6213851 C1.43994302,15.5854425 1.31803256,15.5149138 1.22157442,15.4183437 C1.14926512,15.3459839 1.09163721,15.259654 1.05287558,15.1654575 C1.00107907,15.0397264 0.983516279,14.9011782 1.00231395,14.7667667 C1.01164419,14.6995609 1.02989302,14.6338471 1.05658023,14.5713207 C1.08319884,14.5087943 1.11805,14.4499977 1.16017326,14.396423 C1.22328953,14.3161287 1.30232209,14.2484483 1.39171395,14.1981287 C1.48117442,14.1478092 1.58044535,14.1151897 1.68252907,14.102508 C1.71648837,14.0983034 1.7508593,14.0985069 1.78502442,14.0964724 C2.30854651,14.0996598 2.83213721,14.1028471 3.3556593,14.1059667 Z M0.887812791,10.4228069 C0.977136047,10.4403713 1.00121628,10.4406425 1.08587442,10.4752966 C1.27693837,10.5535563 1.43171047,10.7065494 1.51088023,10.8954172 C1.53715581,10.9580793 1.55499302,11.0239287 1.56391163,11.0911345 C1.56837093,11.1247034 1.56843953,11.1587471 1.57063488,11.1925195 L1.57063488,12.7451011 C1.56466628,12.8348897 1.56761628,12.8584897 1.54387907,12.9459724 C1.50834186,13.0770609 1.43774767,13.1980448 1.34060349,13.2940046 C1.2921,13.3419506 1.23742209,13.383454 1.17801047,13.4173621 C1.11853023,13.4512701 1.05486512,13.4773793 0.988593023,13.4949437 C0.889253488,13.5212563 0.784837209,13.5279701 0.682822093,13.514746 C0.546710465,13.497046 0.416155814,13.4436069 0.307280233,13.3609391 C0.225640698,13.299023 0.156693023,13.2213057 0.105239535,13.1332126 C0.0537860465,13.0451874 0.0201697674,12.9471931 0.00672325581,12.8464184 C0.00226395349,12.8128494 0.00226395349,12.7788736 0,12.7451011 L0,11.1925195 C0.00226395349,11.1587471 0.00226395349,11.1247034 0.00672325581,11.0911345 C0.0157104651,11.0239287 0.0335476744,10.9580793 0.0598232558,10.8954172 C0.0991337209,10.801492 0.157310465,10.7155011 0.230031395,10.6435483 C0.327106977,10.5475885 0.44942907,10.4778057 0.58204186,10.442677 C0.670610465,10.4192126 0.694484884,10.4220609 0.785317442,10.4162287 C0.819482558,10.4183989 0.853647674,10.4206368 0.887812791,10.4228069 Z M0.887812791,5.76506207 C0.977136047,5.78262644 1.00121628,5.78282989 1.08587442,5.81755172 C1.27693837,5.89574368 1.43171047,6.04873678 1.51088023,6.23767241 C1.53715581,6.30033448 1.55499302,6.36611609 1.56391163,6.43338966 C1.56837093,6.46695862 1.56843953,6.50093448 1.57063488,6.5347069 L1.57063488,8.08728851 C1.56466628,8.17714483 1.56761628,8.20074483 1.54387907,8.28822759 C1.50834186,8.41931609 1.43774767,8.5403 1.34060349,8.63625977 C1.26788256,8.70814483 1.18089186,8.76558506 1.08587442,8.80451149 C1.02248372,8.83048506 0.955868605,8.84811724 0.887812791,8.85693333 C0.819825581,8.86581724 0.750877907,8.86581724 0.682822093,8.85693333 C0.580806977,8.8437092 0.48174186,8.81047931 0.392693023,8.75961724 C0.273801163,8.69173333 0.173844186,8.5929931 0.105239535,8.47546782 C0.0537860465,8.38737471 0.0201697674,8.28944828 0.00672325581,8.18867356 C0.00226395349,8.1551046 0.00226395349,8.12106092 0,8.08728851 L0,6.5347069 C0.00596860465,6.44491839 0.0030872093,6.42131839 0.026755814,6.33383563 C0.0622930233,6.20267931 0.132955814,6.08176322 0.230031395,5.98580345 C0.302752326,5.91391839 0.389743023,5.85641034 0.48482907,5.81755172 C0.548219767,5.79157816 0.614766279,5.77394598 0.682822093,5.76506207 C0.716781395,5.76065402 0.751152326,5.76065402 0.785317442,5.75841609 C0.819482558,5.76065402 0.853647674,5.76289195 0.887812791,5.76506207 Z M3.5651093,3.75377241 C3.65443256,3.77133678 3.67844419,3.77160805 3.76310233,3.80626207 C3.88995233,3.8582092 4.00205233,3.94318276 4.08561279,4.05087471 C4.12739302,4.10472069 4.16190116,4.16372069 4.18810814,4.22638276 C4.26727791,4.41525057 4.26727791,4.63165172 4.18810814,4.82051954 C4.16190116,4.88318161 4.12739302,4.94218161 4.08561279,4.99602759 C4.02297674,5.07672874 3.94435581,5.14488391 3.85523837,5.19574598 C3.76618953,5.24660805 3.66712442,5.27983793 3.5651093,5.29312989 C3.53115,5.29753793 3.49677907,5.29753793 3.46261395,5.29977586 L1.89197907,5.29977586 C1.80107791,5.29387586 1.77720349,5.29672414 1.68870349,5.27332759 C1.5560907,5.23819885 1.4337,5.16834828 1.33662442,5.07238851 C1.28812093,5.02437471 1.24613488,4.97032529 1.21183256,4.91159655 C1.17753023,4.85286782 1.15118605,4.78993448 1.13341744,4.72435632 C1.10679884,4.62615862 1.09993837,4.52294253 1.11338488,4.4221 C1.1312907,4.28755287 1.18535116,4.15856667 1.26891163,4.05087471 C1.33154767,3.97017356 1.4101686,3.90201839 1.49928605,3.85115632 C1.58840349,3.80029425 1.6874686,3.76706437 1.78941512,3.75377241 C1.82337442,3.74936437 1.85781395,3.74936437 1.89197907,3.74712644 L3.46261395,3.74712644 C3.49677907,3.74936437 3.53094419,3.7516023 3.5651093,3.75377241 Z M8.27701395,3.75377241 C8.36633721,3.77133678 8.39041744,3.77160805 8.47507558,3.80626207 C8.60192558,3.8582092 8.71395698,3.94318276 8.79758605,4.05087471 C8.92347558,4.2130908 8.98014302,4.4221 8.95311279,4.6248023 C8.94419419,4.69200805 8.92628837,4.75785747 8.9000814,4.82051954 C8.87380581,4.88318161 8.83936628,4.94218161 8.79758605,4.99602759 C8.73495,5.07672874 8.65626047,5.14488391 8.56714302,5.19574598 C8.47809419,5.24660805 8.37902907,5.27983793 8.27701395,5.29312989 C8.24305465,5.29753793 8.20868372,5.29753793 8.1745186,5.29977586 L6.60388372,5.29977586 C6.51305116,5.29387586 6.48910814,5.29672414 6.40060814,5.27332759 C6.26799535,5.23819885 6.14567326,5.16834828 6.04859767,5.07238851 C6.00002558,5.02437471 5.95810814,4.97032529 5.92373721,4.91159655 C5.88943488,4.85286782 5.8630907,4.78993448 5.84532209,4.72435632 C5.81870349,4.62615862 5.81184302,4.52294253 5.82528953,4.4221 C5.84319535,4.28755287 5.89725581,4.15856667 5.98081628,4.05087471 C6.04345233,3.97017356 6.12214186,3.90201839 6.2111907,3.85115632 C6.30030814,3.80029425 6.39937326,3.76706437 6.50138837,3.75377241 C6.53534767,3.74936437 6.5697186,3.74936437 6.60388372,3.74712644 L8.1745186,3.74712644 C8.20868372,3.74936437 8.24284884,3.7516023 8.27701395,3.75377241 Z M12.9889186,3.75377241 C13.0782419,3.77133678 13.1023221,3.77160805 13.1869802,3.80626207 C13.3138302,3.8582092 13.4258616,3.94318276 13.5094907,4.05087471 C13.5512709,4.10472069 13.5857105,4.16372069 13.611986,4.22638276 C13.6382616,4.28904483 13.6560988,4.35489425 13.6650174,4.4221 C13.6920477,4.6248023 13.6353802,4.83381149 13.5094907,4.99602759 C13.4468547,5.07672874 13.3681651,5.14488391 13.2791163,5.19574598 C13.1899988,5.24660805 13.0909337,5.27983793 12.9889186,5.29312989 C12.9550279,5.29753793 12.9205884,5.29753793 12.8864233,5.29977586 L11.3157884,5.29977586 C11.2249558,5.29387586 11.2010814,5.29672414 11.1125128,5.27332759 C10.9799,5.23819885 10.8575779,5.16834828 10.7605023,5.07238851 C10.6877814,5.00050345 10.6296047,4.91451264 10.5902256,4.82051954 C10.5640186,4.75785747 10.5461814,4.69200805 10.5371942,4.6248023 C10.528207,4.55752874 10.528207,4.48937356 10.5371942,4.4221 C10.5551,4.28755287 10.6091605,4.15856667 10.6927895,4.05087471 C10.755357,3.97017356 10.8340465,3.90201839 10.923164,3.85115632 C11.0122128,3.80029425 11.1112779,3.76706437 11.213293,3.75377241 C11.2472523,3.74936437 11.2816233,3.74936437 11.3157884,3.74712644 L12.8864233,3.74712644 C12.9205884,3.74936437 12.9547535,3.7516023 12.9889186,3.75377241 Z M17.7008919,3.75377241 C17.7901465,3.77133678 17.8142267,3.77160805 17.8988849,3.80626207 C18.0257349,3.8582092 18.1378349,3.94318276 18.2213953,4.05087471 C18.2631756,4.10472069 18.2976151,4.16372069 18.3238907,4.22638276 C18.4030605,4.41525057 18.4030605,4.63165172 18.3238907,4.82051954 C18.2976151,4.88318161 18.2631756,4.94218161 18.2213953,4.99602759 C18.1587593,5.07672874 18.0801384,5.14488391 17.9910209,5.19574598 C17.9019035,5.24660805 17.8028384,5.27983793 17.7008919,5.29312989 C17.6669326,5.29753793 17.6325616,5.29753793 17.5983965,5.29977586 L16.027693,5.29977586 C15.9368605,5.29387586 15.912986,5.29672414 15.824486,5.27332759 C15.6918733,5.23819885 15.5694826,5.16834828 15.472407,5.07238851 C15.399686,5.00050345 15.3415779,4.91451264 15.3021988,4.82051954 C15.2496477,4.69512759 15.231193,4.55671494 15.2490988,4.4221 C15.2625453,4.32132529 15.2961616,4.22339885 15.3476151,4.13530575 C15.3819174,4.07657701 15.4239035,4.02252759 15.472407,3.97451379 C15.5209791,3.92656782 15.575657,3.88506437 15.6350686,3.85115632 C15.724186,3.80029425 15.8232512,3.76706437 15.9251977,3.75377241 C15.959157,3.74936437 15.9935279,3.74936437 16.027693,3.74712644 L17.5983965,3.74712644 C17.6325616,3.74936437 17.6667267,3.7516023 17.7008919,3.75377241 Z"/>
      <g transform="translate(19.895)">
        <path d="M0.341605426,4.20326964 C0.725848643,2.62552826 2.48607248,1.4320272 4.5967689,1.4320272 C6.98825843,1.4320272 8.9298501,2.96426398 8.9298501,4.85152366 C8.9298501,6.73878333 6.98825843,8.27095795 4.5967689,8.27095795 C2.48374564,8.27095795 0.7220125,7.07484598 0.340347674,5.49455584 L4.58243052,5.29712059 C4.80939186,5.29712059 4.99365252,5.1812455 4.99365252,5.03857739 L4.99365252,4.64731245 C4.99365252,4.50464435 4.80939186,4.38883142 4.58243052,4.38883142 L0.341605426,4.20326964 Z"/>
        <path d="M8.69766909 2.91565115C9.6401655 2.91689444 10.4050045 3.76904885 10.4050045 4.81851418 10.4050045 5.8679795 9.6401655 6.72013391 8.69766909 6.72131504 9.11392209 6.17470038 9.35616512 5.52085153 9.35616512 4.81851418 9.35616512 4.11617682 9.11392209 3.4622658 8.69766909 2.91565115zM4.83341492.276881801C4.83341492.124080843 4.70789128 0 4.55325068 0 4.39867297 0 4.27314932.124080843 4.27314932.276881801L4.27314932 1.50954665C4.27314932 1.66240977 4.39867297 1.78649061 4.55325068 1.78649061 4.70789128 1.78649061 4.83341492 1.66240977 4.83341492 1.50954665L4.83341492.276881801zM7.62933459 1.1077137C7.70523992.972754023 7.65813711.79869272 7.52424942.719308333 7.39036172.639923946 7.22006211.685055556 7.14415678.82001523L6.549303 1.87805929C6.47346056 2.01301897 6.52050048 2.18708027 6.65445107 2.26646466 6.78833876 2.34584904 6.95863837 2.30071743 7.0345437 2.16575776L7.62933459 1.1077137zM1.39560155 1.1077137C1.31969622.972754023 1.36679903.79869272 1.50068672.719308333 1.63457442.639923946 1.80493692.685055556 1.88077936.82001523L2.47563314 1.87805929C2.55153847 2.01301897 2.50443566 2.18708027 2.37054797 2.26646466 2.23659738 2.34584904 2.06629777 2.30071743 1.99039244 2.16575776L1.39560155 1.1077137zM4.33861531 9.40764042C4.33861531 9.56044138 4.46413895 9.68452222 4.61877955 9.68452222 4.77335727 9.68452222 4.89888091 9.56044138 4.89888091 9.40764042L4.89888091 8.17491341C4.89888091 8.02211245 4.77335727 7.89803161 4.61877955 7.89803161 4.46413895 7.89803161 4.33861531 8.02211245 4.33861531 8.17491341L4.33861531 9.40764042zM1.47666366 8.57680852C1.40082122 8.7117682 1.44792403 8.8858295 1.58181172 8.96521389 1.71569942 9.04459828 1.88599903 8.99946667 1.96190436 8.86444483L2.55669525 7.80646293C2.63260058 7.67144109 2.58549777 7.49744195 2.45161008 7.4179954 2.31772238 7.33861102 2.14742277 7.38374262 2.07151744 7.51876446L1.47666366 8.57680852zM7.71045959 8.57680852C7.78636492 8.7117682 7.73926211 8.8858295 7.60537442 8.96521389 7.47148672 9.04459828 7.30112422 8.99946667 7.2252189 8.86444483L6.630428 7.80646293C6.55452267 7.67144109 6.60162548 7.49744195 6.73551318 7.4179954 6.86940087 7.33861102 7.03976337 7.38374262 7.11560581 7.51876446L7.71045959 8.57680852z"/>
      </g>
    </g>
    <path d="M9.4446,45.1641333 L6.1074,45.1641333 L6.1074,54.3333333 L3.6288,54.3333333 L3.6288,45.1641333 L0.2916,45.1641333 L0.2916,43.1553333 L9.4446,43.1553333 L9.4446,45.1641333 Z M15.2847,46.1199333 L15.0417,48.3393333 L14.3937,48.3393333 C13.8644974,48.3393333 13.0491055,48.5229315 11.9475,48.8901333 L11.9475,54.3333333 L9.5499,54.3333333 L9.5499,46.3467333 L11.4129,46.3467333 L11.6235,47.5131333 C12.7143055,46.5843287 13.7942947,46.1199333 14.8635,46.1199333 L15.2847,46.1199333 Z M16.6536,48.1287333 L16.4268,46.5087333 C17.8632072,46.249532 19.2509933,46.1199333 20.5902,46.1199333 C21.6702054,46.1199333 22.4639975,46.3386311 22.9716,46.7760333 C23.4792025,47.2134355 23.733,47.9721279 23.733,49.0521333 L23.733,54.3333333 L21.8376,54.3333333 L21.5946,53.1183333 C20.795396,54.057938 19.8126058,54.5277333 18.6462,54.5277333 C17.8793962,54.5277333 17.2530024,54.3252354 16.767,53.9202333 C16.2809976,53.5152313 16.038,52.950937 16.038,52.2273333 L16.038,51.4173333 C16.038,50.7801301 16.2539978,50.2833351 16.686,49.9269333 C17.1180022,49.5705316 17.7173962,49.3923333 18.4842,49.3923333 L21.3354,49.3923333 L21.3354,49.0359333 C21.3245999,48.6255313 21.2301009,48.350134 21.0519,48.2097333 C20.8736991,48.0693326 20.5308025,47.9991333 20.0232,47.9991333 C19.1375956,47.9991333 18.0144068,48.0423329 16.6536,48.1287333 Z M18.4032,51.5955333 L18.4032,51.9033333 C18.4032,52.4541361 18.7163969,52.7295333 19.3428,52.7295333 C19.9908032,52.7295333 20.6549966,52.4703359 21.3354,51.9519333 L21.3354,50.8341333 L19.1808,50.8341333 C18.6623974,50.8449334 18.4032,51.0987308 18.4032,51.5955333 Z M32.2137,52.4379333 L32.4243,53.9931333 C31.6034959,54.3495351 30.5721062,54.5277333 29.3301,54.5277333 C27.8612927,54.5277333 26.827203,54.2118365 26.2278,53.5800333 C25.628397,52.9482302 25.3287,51.865541 25.3287,50.3319333 C25.3287,48.7875256 25.631097,47.6994365 26.2359,47.0676333 C26.840703,46.4358302 27.8828926,46.1199333 29.3625,46.1199333 C30.572106,46.1199333 31.5548962,46.2873317 32.3109,46.6221333 L32.0517,48.1125333 C30.8852942,48.0909332 30.1239018,48.0801333 29.7675,48.0801333 C29.0330963,48.0801333 28.5282014,48.2367318 28.2528,48.5499333 C27.9773986,48.8631349 27.8397,49.457129 27.8397,50.3319333 C27.8397,51.2067377 27.9773986,51.8007318 28.2528,52.1139333 C28.5282014,52.4271349 29.0330963,52.5837333 29.7675,52.5837333 C30.7071047,52.5837333 31.5224965,52.5351338 32.2137,52.4379333 Z M36.9684,50.6235333 L36.207,50.6235333 C36.2826004,51.1095358 36.3204,51.5091318 36.3204,51.8223333 L36.3204,54.3333333 L33.9228,54.3333333 L33.9228,42.9933333 L36.3204,42.9933333 L36.3204,47.6751333 C36.3204,48.204336 36.2826004,48.6903311 36.207,49.1331333 L36.9522,49.1331333 L38.9286,46.3467333 L41.6178,46.3467333 L39.5442,49.1169333 C39.3713991,49.4085348 39.1230016,49.6623323 38.799,49.8783333 L38.799,49.9107333 C39.0690013,50.0943343 39.3173989,50.3805314 39.5442,50.7693333 L41.8932,54.3333333 L39.204,54.3333333 L36.9684,50.6235333 Z M47.7657,51.1419333 L44.8821,51.1419333 C44.9577004,51.7251362 45.1331986,52.1166323 45.4086,52.3164333 C45.6840014,52.5162343 46.1402968,52.6161333 46.7775,52.6161333 C47.6307043,52.6161333 48.6242943,52.5567339 49.7583,52.4379333 L49.9851,53.9283333 C49.1534958,54.3279353 47.9925074,54.5277333 46.5021,54.5277333 C45.0008925,54.5277333 43.9317032,54.2037366 43.2945,53.5557333 C42.6572968,52.9077301 42.3387,51.8385408 42.3387,50.3481333 C42.3387,48.7821255 42.6491969,47.6859365 43.2702,47.0595333 C43.8912031,46.4331302 44.9360926,46.1199333 46.4049,46.1199333 C47.7333066,46.1199333 48.694497,46.349431 49.2885,46.8084333 C49.882503,47.2674356 50.1848999,47.9667286 50.1957,48.9063333 C50.1957,49.6515371 50.0040019,50.2104315 49.6206,50.5830333 C49.2371981,50.9556352 48.6189043,51.1419333 47.7657,51.1419333 Z M44.8335,49.7001333 L47.1015,49.7001333 C47.3931014,49.7001333 47.5901995,49.629934 47.6928,49.4895333 C47.7954005,49.3491326 47.8467,49.1439347 47.8467,48.8739333 C47.8467,48.4959314 47.749501,48.2340341 47.5551,48.0882333 C47.360699,47.9424326 47.0043026,47.8695333 46.4859,47.8695333 C45.8702969,47.8695333 45.4491011,47.9910321 45.2223,48.2340333 C44.9954989,48.4770345 44.8659002,48.9657297 44.8335,49.7001333 Z M57.5262,46.1199333 L57.2832,48.3393333 L56.6352,48.3393333 C56.1059973,48.3393333 55.2906055,48.5229315 54.189,48.8901333 L54.189,54.3333333 L51.7914,54.3333333 L51.7914,46.3467333 L53.6544,46.3467333 L53.865,47.5131333 C54.9558054,46.5843287 56.0357946,46.1199333 57.105,46.1199333 L57.5262,46.1199333 Z"/>
  </g>
</svg>
