<svg xmlns="http://www.w3.org/2000/svg" width="16" height="16" viewBox="0 0 16 16">
  <path fill="#4A4A4A" fill-rule="evenodd" d="M19.2659035,19.5002537 C18.1918328,20.3156548 16.8523193,20.799565 15.3997825,20.799565 C11.8652802,20.799565 9,17.9342848 9,14.3997825 C9,10.8652802 11.8652802,8 15.3997825,8 C18.9342848,8 21.799565,10.8652802 21.799565,14.3997825 C21.799565,15.8524876 21.3155426,17.1921433 20.4999702,18.2662769 L24.7438312,22.5073661 C25.0847069,22.8480192 25.0854882,23.4011099 24.7455764,23.7427289 C24.4056646,24.0843479 23.8537772,24.085131 23.5129016,23.7444779 L19.2659035,19.5002537 Z M15.4018074,19.0541698 C17.9723545,19.0541698 20.0561947,16.9703296 20.0561947,14.3997825 C20.0561947,11.8292354 17.9723545,9.74539523 15.4018074,9.74539523 C12.8312603,9.74539523 10.7474201,11.8292354 10.7474201,14.3997825 C10.7474201,16.9703296 12.8312603,19.0541698 15.4018074,19.0541698 Z" transform="translate(-9 -8)" opacity=".5"/>
</svg>
